<?xml version="1.0" standalone="no"?>
<!DOCTYPE svg PUBLIC "-//W3C//DTD SVG 20010904//EN"
 "http://www.w3.org/TR/2001/REC-SVG-20010904/DTD/svg10.dtd">
<svg version="1.0" xmlns="http://www.w3.org/2000/svg"
 width="388.000000pt" height="388.000000pt" viewBox="0 0 388.000000 388.000000"
 preserveAspectRatio="xMidYMid meet">

<g transform="translate(0.000000,388.000000) scale(0.100000,-0.100000)"
fill="#000000" stroke="none">
<path d="M1735 3214 c-88 -16 -219 -56 -277 -86 -49 -24 -48 -29 1 -12 22 7
65 18 98 23 32 5 85 20 118 32 85 31 285 38 427 14 364 -60 647 -257 839 -587
111 -190 181 -483 166 -698 -11 -152 -24 -183 -48 -113 -14 44 -34 67 -50 57
-8 -4 -9 -3 -5 4 4 7 1 12 -7 12 -8 0 -20 7 -27 15 -19 23 -26 19 -47 -31 -14
-32 -22 -41 -26 -30 -3 8 -2 18 3 21 17 11 11 35 -9 35 -10 0 -32 7 -47 15
-16 8 -36 15 -44 15 -8 0 -27 6 -42 14 -26 14 -27 13 -15 -5 7 -11 16 -18 22
-16 5 3 19 1 30 -3 39 -14 -171 -21 -375 -12 -124 5 -174 10 -127 12 42 1 82
4 87 5 6 1 61 3 123 5 61 1 105 4 97 7 -8 4 -21 13 -28 22 -11 15 -12 14 -6
-1 5 -14 -9 -16 -140 -16 l-146 1 -21 34 c-11 18 -19 38 -17 45 3 7 15 -7 28
-30 27 -48 40 -50 15 -2 -24 47 -12 46 14 -1 13 -22 25 -38 28 -35 3 2 -2 15
-11 28 -29 41 -16 44 20 3 20 -22 31 -30 25 -18 -6 12 -16 25 -21 28 -6 4 -7
11 -4 17 5 7 2 8 -6 3 -9 -5 -11 -1 -6 16 3 13 3 18 0 11 -5 -10 -9 -10 -20
-1 -12 10 -13 9 -8 -6 6 -14 4 -16 -7 -9 -29 18 -49 14 -59 -11 -5 -14 -7 -32
-4 -40 4 -8 2 -15 -3 -15 -5 0 -11 -25 -12 -55 l-2 -55 35 0 36 0 0 -77 0 -78
-20 25 c-11 14 -20 29 -20 34 0 5 -3 7 -6 3 -7 -6 35 -80 48 -85 4 -2 8 -9 8
-16 0 -21 117 -133 178 -170 105 -64 249 -96 320 -72 18 6 22 4 22 -13 0 -11
11 -33 25 -49 13 -16 22 -31 19 -34 -6 -7 81 -78 95 -78 6 0 11 -4 11 -8 0 -5
18 -21 41 -38 23 -16 48 -37 57 -46 9 -10 22 -18 29 -18 7 0 13 -4 13 -8 0 -5
18 -21 41 -38 23 -16 48 -37 57 -46 9 -10 20 -18 24 -18 5 0 16 -8 26 -18 10
-10 77 -64 150 -121 166 -129 181 -147 75 -90 -32 17 -85 51 -117 76 -204 156
-313 236 -323 236 -7 0 -11 4 -10 8 3 10 -125 109 -135 103 -11 -7 -41 44 -35
60 4 10 -5 18 -31 27 -53 17 -55 19 -36 40 10 11 20 16 23 12 3 -5 15 -14 26
-22 11 -8 8 -2 -7 14 -27 28 -28 28 -47 11 -18 -16 -24 -17 -51 -6 -16 7 -30
18 -30 25 0 7 -23 18 -52 25 -178 42 -334 159 -418 315 -22 39 -23 47 -10 55
14 9 7 15 -14 11 -11 -2 -26 19 -26 38 0 11 4 9 14 -5 13 -17 13 -14 4 26 -6
25 -14 52 -19 61 -10 20 16 134 38 169 14 23 14 24 -1 9 -9 -8 -25 -37 -35
-64 l-18 -48 -69 82 -69 82 -26 -31 c-14 -16 -32 -30 -40 -30 -10 1 -8 5 5 15
11 8 16 15 12 15 -4 0 5 15 20 34 55 63 62 74 57 80 -4 3 -1 6 5 6 7 0 12 7
12 15 0 8 7 15 15 15 8 0 15 5 15 10 0 6 10 21 23 34 12 12 33 37 46 54 13 18
31 32 40 32 13 0 13 2 2 9 -11 7 -9 10 7 15 11 4 23 13 26 21 3 8 15 15 26 15
11 0 20 5 20 10 0 6 7 10 15 10 8 0 15 7 15 15 0 9 6 12 15 9 8 -4 12 -10 9
-15 -3 -5 10 -9 28 -10 27 0 30 -2 13 -9 -19 -8 -19 -9 3 -9 13 -1 20 -5 17
-11 -3 -5 1 -10 10 -10 9 0 13 -4 10 -10 -3 -5 -2 -10 3 -10 5 0 15 -11 22
-25 7 -14 20 -25 29 -25 13 0 13 -2 2 -9 -11 -7 -9 -10 8 -16 13 -4 20 -9 18
-12 -5 -4 11 -28 41 -59 7 -8 10 -14 5 -14 -4 0 0 -5 10 -11 9 -6 15 -14 12
-20 -4 -5 -1 -9 4 -9 6 0 11 -5 11 -11 0 -7 11 -22 24 -34 14 -13 22 -26 19
-29 -3 -3 2 -8 11 -12 9 -3 13 -10 10 -15 -3 -5 2 -12 10 -15 9 -3 14 -10 11
-14 -3 -5 4 -11 15 -15 11 -4 18 -10 15 -15 -6 -9 31 -21 39 -12 3 3 6 14 6
24 0 10 11 24 25 30 14 6 24 14 23 17 -2 3 -42 56 -90 116 -47 61 -142 182
-210 269 -68 88 -129 161 -134 163 -10 3 -188 -216 -411 -507 -107 -139 -193
-241 -177 -211 17 33 575 740 585 740 3 1 71 -83 150 -186 254 -329 307 -394
313 -385 3 5 -3 17 -14 27 -17 16 -20 31 -20 112 l0 94 -71 -2 c-69 -2 -73 -1
-93 27 -60 83 -257 324 -265 324 -5 0 -44 -42 -87 -92 -43 -51 -98 -117 -123
-145 l-45 -53 -163 0 c-91 0 -163 -4 -163 -9 0 -5 35 -7 81 -4 l81 6 -17 -39
c-9 -21 -19 -44 -22 -51 -8 -20 -32 -23 -42 -5 -9 16 -10 15 -16 -3 -18 -55
-28 -75 -37 -75 -5 0 -6 -6 -2 -12 5 -9 2 -8 -9 1 -17 13 -17 15 0 34 10 11
12 17 6 13 -9 -5 -12 0 -10 16 1 17 -3 22 -15 20 -16 -3 -18 8 -18 107 0 96 2
110 18 113 13 3 9 8 -17 22 -27 14 -39 16 -53 7 -10 -6 -23 -11 -30 -11 -9 0
-13 -19 -13 -62 l0 -63 -255 -3 -255 -2 -74 -185 c-41 -102 -75 -185 -77 -185
-2 0 -13 23 -25 50 -24 55 -33 61 -43 28 -6 -22 -7 -22 -20 7 -12 30 -13 29
-36 -55 -12 -47 -33 -139 -47 -204 -13 -66 -25 -121 -27 -124 -11 -10 -29 119
-33 240 -16 415 148 757 512 1066 128 110 129 110 70 77 -246 -137 -474 -426
-560 -710 -56 -183 -71 -428 -40 -611 9 -49 13 -99 10 -112 -15 -59 50 -182
185 -351 302 -378 719 -560 1145 -500 233 32 455 137 597 281 l58 58 222 -173
c123 -95 274 -214 337 -265 109 -88 116 -92 163 -92 41 0 54 5 78 29 34 34 46
74 34 109 -6 17 -117 111 -319 270 -171 134 -318 250 -329 257 -18 13 -17 16
24 62 55 63 164 229 179 272 15 46 14 86 -3 120 -12 22 -13 42 -6 92 37 251
-30 585 -160 809 -191 328 -482 534 -839 594 -115 19 -288 19 -396 0z m1035
-966 c0 -24 -5 -50 -10 -58 -9 -13 -14 -11 -35 13 -14 16 -23 33 -19 38 3 5 0
8 -6 7 -6 -2 -19 7 -27 20 -15 22 -15 22 41 22 l56 0 0 -42z m-1163 -83 c49
-46 83 -85 78 -85 -6 0 -48 38 -95 85 -47 47 -81 85 -77 85 4 0 46 -38 94 -85z
m-127 -100 c0 -10 11 -15 35 -15 19 0 35 -4 35 -9 0 -5 16 -15 35 -21 19 -6
35 -18 35 -26 0 -11 -22 -14 -110 -14 l-110 0 0 33 c0 25 7 36 28 49 34 22 52
23 52 3z m462 -115 c-48 -61 -78 -109 -75 -117 5 -12 7 -12 14 -2 4 7 6 16 3
21 -9 14 32 25 106 26 41 1 82 -2 90 -8 11 -7 -3 -10 -47 -10 l-63 0 0 -110 0
-109 33 -10 c25 -7 27 -9 10 -10 -19 -1 -23 -7 -24 -38 l-2 -38 -7 40 -7 40
-3 -40 -3 -40 -7 40 c-4 22 -8 30 -9 18 0 -12 -7 -24 -13 -26 -10 -4 -9 -8 2
-16 10 -7 11 -11 3 -11 -7 0 -13 -9 -13 -20 0 -17 8 -20 93 -23 60 -2 47 -3
-38 -3 l-130 1 -3 163 c-1 102 -6 162 -13 162 -11 0 21 43 115 158 33 39 61
70 64 68 2 -2 -33 -50 -76 -106z m200 -25 c15 -22 10 -20 -17 10 -20 22 -46
54 -57 70 -15 22 -10 20 17 -10 20 -22 46 -53 57 -70z m124 -12 c-10 -11 -31
11 -33 33 l-1 27 19 -29 c10 -15 17 -30 15 -31z m-231 -13 c4 -6 -16 -10 -52
-10 -41 0 -54 3 -43 10 20 13 87 13 95 0z m85 -40 c0 -5 -4 -10 -10 -10 -5 0
-10 5 -10 10 0 6 5 10 10 10 6 0 10 -4 10 -10z m-50 -60 c0 -39 -1 -40 -35
-40 -34 0 -35 2 -37 38 l-1 37 -7 -45 -7 -45 -1 48 -2 47 45 0 45 0 0 -40z
m74 24 c4 -11 1 -14 -12 -10 -15 5 -17 -3 -15 -92 1 -54 -3 -105 -8 -113 -5
-9 -9 31 -9 109 0 113 1 122 19 122 10 0 22 -7 25 -16z m736 -3 c0 -5 -6 -11
-14 -14 -9 -4 -16 -24 -19 -49 -3 -38 -4 -36 -5 15 -2 51 0 57 18 57 11 0 20
-4 20 -9z m-521 -43 c0 -24 -4 -61 -8 -83 -8 -34 -9 -36 -10 -11 -1 28 -2 28
-19 13 -10 -10 -22 -17 -25 -17 -4 0 -7 32 -7 70 l0 70 35 0 c35 0 35 0 34
-42z m81 18 c0 -14 -10 -30 -25 -40 -17 -12 -25 -26 -26 -49 l-1 -32 -8 30
c-4 17 -8 49 -9 73 -1 42 -1 42 34 42 30 0 35 -3 35 -24z m390 -1 c0 -18 -5
-25 -19 -25 -11 0 -22 -6 -24 -12 -4 -10 -8 -9 -16 2 -8 11 -11 -5 -11 -62 0
-50 -4 -78 -11 -78 -7 0 -9 9 -6 23 4 12 2 29 -3 37 -8 13 -10 12 -10 -2 0
-21 -20 -24 -38 -6 -9 9 -12 8 -12 -5 0 -9 -4 -17 -10 -17 -5 0 -10 8 -10 17
0 14 -3 14 -20 -5 -11 -12 -20 -24 -20 -26 0 -3 23 -4 50 -3 28 2 53 0 56 -5
3 -4 -93 -8 -213 -7 -120 1 -207 4 -194 8 14 4 55 6 92 4 78 -2 118 5 97 18
-10 7 -9 9 5 9 9 0 17 -7 17 -15 0 -8 5 -15 10 -15 6 0 11 37 12 88 l2 87 6
-70 c4 -38 7 -55 8 -37 2 31 3 32 47 32 32 0 47 5 52 16 4 11 8 12 13 4 11
-18 60 6 60 29 0 24 25 40 63 41 22 0 27 -4 27 -25z m-660 4 c0 -6 -5 -20 -11
-32 -7 -12 -8 -19 -4 -15 10 9 57 -90 49 -103 -3 -5 0 -8 7 -7 6 2 14 -3 16
-9 3 -8 -4 -13 -16 -13 -19 0 -21 -6 -23 -62 l-1 -63 -7 65 c-4 36 -7 55 -8
42 -1 -13 -6 -21 -12 -17 -5 3 -7 12 -3 20 3 8 0 15 -5 15 -6 0 -13 -24 -15
-52 -2 -29 -4 11 -5 89 -2 139 0 149 31 152 4 1 7 -4 7 -10z m-910 -104 c0
-41 -2 -75 -5 -75 -4 0 -19 7 -35 15 -28 14 -30 20 -30 70 0 51 1 54 28 58 15
2 30 5 35 6 4 0 7 -33 7 -74z m80 -5 l0 -80 -29 0 c-24 0 -29 5 -35 31 -8 40
-8 93 0 113 4 10 18 16 35 16 l29 0 0 -80z m310 0 l0 -80 -50 0 -50 0 0 80 0
80 50 0 50 0 0 -80z m70 0 c0 -79 0 -80 -25 -80 -25 0 -25 1 -25 80 0 79 0 80
25 80 25 0 25 -1 25 -80z m100 50 c0 -5 -17 -9 -37 -9 -38 1 -38 1 -8 9 43 11
45 11 45 0z m248 -17 c-10 -2 -26 -2 -35 0 -10 3 -2 5 17 5 19 0 27 -2 18 -5z
m-228 -13 c0 -5 -21 -10 -46 -10 -27 0 -43 -4 -39 -10 3 -5 -1 -10 -9 -10 -9
0 -16 9 -16 20 0 18 7 20 55 20 30 0 55 -4 55 -10z m645 0 c3 -5 -1 -10 -9
-10 -9 0 -16 5 -16 10 0 6 4 10 9 10 6 0 13 -4 16 -10z m45 0 c0 -5 -4 -10
-10 -10 -5 0 -10 5 -10 10 0 6 5 10 10 10 6 0 10 -4 10 -10z m-692 -55 c1 -27
-3 -35 -16 -35 -13 0 -14 2 -4 9 10 6 8 10 -10 15 -22 7 -22 7 -3 16 19 8 19
9 -2 9 -37 1 -37 21 0 21 32 0 34 -2 35 -35z m149 3 c-3 -7 -5 -2 -5 12 0 14
2 19 5 13 2 -7 2 -19 0 -25z m-209 -5 c2 -9 -6 -13 -25 -12 -15 0 -22 3 -15 6
6 2 9 9 6 15 -4 6 1 8 11 6 10 -1 20 -9 23 -15z m-13 -33 c-3 -5 -12 -7 -20
-3 -21 7 -19 13 6 13 11 0 18 -4 14 -10z m30 0 c3 -5 1 -10 -4 -10 -6 0 -11 5
-11 10 0 6 2 10 4 10 3 0 8 -4 11 -10z m602 -32 c-3 -8 -6 -5 -6 6 -1 11 2 17
5 13 3 -3 4 -12 1 -19z m30 0 c-3 -8 -6 -5 -6 6 -1 11 2 17 5 13 3 -3 4 -12 1
-19z m70 0 c-3 -8 -6 -5 -6 6 -1 11 2 17 5 13 3 -3 4 -12 1 -19z m30 0 c-3 -8
-6 -5 -6 6 -1 11 2 17 5 13 3 -3 4 -12 1 -19z m20 0 c-3 -8 -6 -5 -6 6 -1 11
2 17 5 13 3 -3 4 -12 1 -19z m-317 2 c0 -5 -2 -10 -4 -10 -3 0 -8 5 -11 10 -3
6 -1 10 4 10 6 0 11 -4 11 -10z"/>
<path d="M1902 1728 l2 -93 3 87 c4 86 4 87 31 91 25 4 24 4 -5 6 l-33 1 2
-92z"/>
<path d="M1893 1573 c-18 -3 -23 -11 -23 -34 0 -24 4 -29 25 -29 22 0 25 4 25
35 0 19 -1 34 -2 34 -2 -1 -13 -4 -25 -6z"/>
<path d="M2790 1790 c0 -5 5 -10 10 -10 6 0 10 5 10 10 0 6 -4 10 -10 10 -5 0
-10 -4 -10 -10z"/>
<path d="M2343 2270 c-20 -8 -23 -16 -23 -71 0 -75 13 -72 14 3 1 52 2 53 31
53 28 0 30 -3 37 -48 9 -65 18 -72 18 -14 0 34 -6 53 -20 67 -22 22 -25 23
-57 10z"/>
<path d="M2343 2123 c26 -2 67 -2 90 0 23 2 2 3 -48 3 -49 0 -68 -1 -42 -3z"/>
<path d="M2283 2098 c-23 -30 -24 -41 -2 -21 12 12 20 25 17 28 -3 3 -10 0
-15 -7z"/>
<path d="M2320 2068 l5 -43 3 38 c2 20 7 37 12 37 5 0 11 -17 13 -37 l4 -38 1
39 c2 29 5 37 17 32 8 -3 15 -1 15 4 0 6 -17 10 -38 10 l-38 0 6 -42z"/>
<path d="M2400 2070 c0 -22 2 -40 4 -40 2 0 6 18 8 40 2 22 0 40 -4 40 -5 0
-8 -18 -8 -40z"/>
<path d="M2432 2090 c0 -14 2 -19 5 -12 2 6 2 18 0 25 -3 6 -5 1 -5 -13z"/>
<path d="M2481 2073 c1 -34 2 -35 9 -13 11 36 11 50 0 50 -5 0 -10 -17 -9 -37z"/>
<path d="M2239 2083 c-13 -16 -12 -17 4 -4 16 13 21 21 13 21 -2 0 -10 -8 -17
-17z"/>
<path d="M2250 2039 c0 -5 5 -7 10 -4 6 3 10 8 10 11 0 2 -4 4 -10 4 -5 0 -10
-5 -10 -11z"/>
<path d="M2350 2014 c0 -6 7 -19 16 -30 14 -18 14 -18 3 6 -14 31 -19 36 -19
24z"/>
<path d="M2376 2008 c3 -5 9 -6 14 -3 5 3 13 -3 19 -12 6 -10 10 -13 11 -8 0
18 -14 32 -32 32 -9 0 -15 -4 -12 -9z"/>
<path d="M2487 1990 c8 -30 21 -34 15 -5 -2 14 -8 25 -12 25 -5 0 -6 -9 -3
-20z"/>
<path d="M2580 1986 c0 -2 7 -7 16 -10 8 -3 12 -2 9 4 -6 10 -25 14 -25 6z"/>
</g>
</svg>
